<svg xmlns="http://www.w3.org/2000/svg" viewBox="0 0 20.8005 20.802" fill="none" aria-hidden="true">
  <path d="M12.8003 2.90025L10.8003 4.80025M3.90025 6.80025L1.00025 6.00025M4.80025 10.8003L2.90025 12.8003M6.00025 1.00025L6.80025 3.90025M7.83725 8.49025C7.79848 8.3989 7.78787 8.29806 7.80681 8.20064C7.82574 8.10323 7.87335 8.01369 7.94352 7.94352C8.01369 7.87335 8.10323 7.82574 8.20064 7.80681C8.29806 7.78787 8.3989 7.79848 8.49025 7.83725L19.4903 12.3373C19.5882 12.3774 19.6708 12.4476 19.7263 12.5377C19.7817 12.6278 19.8072 12.7332 19.799 12.8387C19.7907 12.9442 19.7493 13.0444 19.6805 13.1248C19.6117 13.2052 19.5192 13.2618 19.4163 13.2863L15.0673 14.3273C14.8877 14.3701 14.7236 14.4619 14.5929 14.5923C14.4623 14.7227 14.3704 14.8868 14.3273 15.0663L13.2873 19.4163C13.263 19.5195 13.2065 19.6124 13.126 19.6815C13.0455 19.7506 12.9451 19.7923 12.8393 19.8005C12.7335 19.8088 12.6279 19.7831 12.5376 19.7274C12.4474 19.6716 12.3772 19.5885 12.3373 19.4903L7.83725 8.49025Z" stroke="#fff" stroke-width="2" stroke-linecap="round" stroke-linejoin="round"/>
</svg>
