<svg width="24" height="24" viewBox="0 0 22 22" fill="none" xmlns="http://www.w3.org/2000/svg">
<g id="Group">
<path id="Vector" d="M9.852 13.772L9.469 14.695M12.148 13.772C12.512 13.6212 12.8428 13.4003 13.1214 13.1217C13.4 12.8431 13.6211 12.5123 13.7719 12.1483C13.9227 11.7843 14.0003 11.3942 14.0003 11.0002C14.0003 10.6062 13.9228 10.216 13.772 9.852C13.6212 9.48798 13.4003 9.15721 13.1217 8.87859C12.8431 8.59997 12.5123 8.37894 12.1483 8.22814M12.1483 8.22814C11.7843 8.07734 11.3942 7.99971 11.0002 7.99969C10.6062 7.99966 10.216 8.07724 9.852 8.228L9.469 7.305M12.1483 8.22814L12.531 7.305" stroke="var(--stroke-0, black)" stroke-width="2" stroke-linecap="round" stroke-linejoin="round"/>
<path id="Vector_2" d="M12.53 14.696L12.148 13.772C11.784 13.9228 11.3938 14.0003 10.9998 14.0003C10.6058 14.0003 10.2157 13.9227 9.85166 13.7719C9.48765 13.6211 9.15691 13.4 8.87833 13.1214C8.59974 12.8428 8.37876 12.512 8.228 12.148C8.07724 11.784 7.99966 11.3938 7.99969 10.9998C7.99971 10.6058 8.07734 10.2157 8.22814 9.85166C8.37894 9.48765 8.59997 9.15691 8.87859 8.87833C9.15721 8.59974 9.48798 8.37876 9.852 8.228M13.772 9.852L14.695 9.469M13.772 12.148L14.695 12.531" stroke="var(--stroke-0, black)" stroke-width="2" stroke-linecap="round" stroke-linejoin="round"/>
<path id="Vector_3" d="M3.5 9H3C2.46957 9 1.96086 8.78929 1.58579 8.41421C1.21071 8.03914 1 7.53043 1 7V3C1 2.46957 1.21071 1.96086 1.58579 1.58579C1.96086 1.21071 2.46957 1 3 1H19C19.5304 1 20.0391 1.21071 20.4142 1.58579C20.7893 1.96086 21 2.46957 21 3V7C21 7.53043 20.7893 8.03914 20.4142 8.41421C20.0391 8.78929 19.5304 9 19 9H18.5M3.5 13H3C2.46957 13 1.96086 13.2107 1.58579 13.5858C1.21071 13.9609 1 14.4696 1 15V19C1 19.5304 1.21071 20.0391 1.58579 20.4142C1.96086 20.7893 2.46957 21 3 21H19C19.5304 21 20.0391 20.7893 20.4142 20.4142C20.7893 20.0391 21 19.5304 21 19V15C21 14.4696 20.7893 13.9609 20.4142 13.5858C20.0391 13.2107 19.5304 13 19 13H18.5M5 17H5.01M5 5H5.01M8.228 9.852L7.305 9.469M8.228 12.148L7.305 12.531" stroke="var(--stroke-0, black)" stroke-width="2" stroke-linecap="round" stroke-linejoin="round"/>
</g>
</svg>
